<svg width="86" height="74" viewBox="0 0 86 74" fill="none" xmlns="http://www.w3.org/2000/svg">
<g clip-path="url(#clip0_3391_988)">
<path d="M3.41308 31.011C4.11156 27.7747 6.61929 24.6214 30.203 14.9382C52.8356 5.6626 56.7333 6.05868 59.9066 7.20799C67.106 9.85542 70.9004 16.7145 75.4497 25.0619C80.3789 34.0327 83.4081 39.5032 81.6147 44.9272C79.4293 51.6021 72.1248 51.727 47.878 61.1814C29.2069 68.48 24.2283 72.088 19.3475 69.0914C15.1669 66.5491 16.7317 62.5538 10.6619 48.4052C5.45319 36.2802 2.57963 35.1613 3.41308 31.011Z" fill="white" stroke="#1F1F22" stroke-miterlimit="10"/>
<path d="M3.41307 31.0112C4.20152 25.3439 11.2287 23.2145 33.2403 13.6942C46.7499 7.86763 52.6659 4.95985 59.9066 7.20814C63.0166 8.18967 67.37 10.4269 67.1104 12.155C66.8405 13.9829 61.8663 14.4252 57.445 15.1859C55.7784 15.4804 34.1135 19.3086 17.4486 30.6427C12.2963 34.1726 7.83404 38.2566 5.22785 36.7011C3.52739 35.7619 3.14865 32.9808 3.41307 31.0112Z" fill="#1F1F22" stroke="#1F1F22" stroke-miterlimit="10"/>
<path d="M14.7369 34.4004C19.1955 44.7956 23.6121 55.2066 28.0865 65.6438L14.7369 34.4004Z" fill="#1F1F22"/>
<path d="M14.7369 34.4004C19.1955 44.7956 23.6121 55.2066 28.0865 65.6438" stroke="#1F1F22" stroke-miterlimit="10"/>
<path d="M23.6497 31.0308C28.1082 41.4259 32.5248 51.837 36.9992 62.2741L23.6497 31.0308Z" fill="#1F1F22"/>
<path d="M23.6497 31.0308C28.1082 41.4259 32.5248 51.837 36.9992 62.2741" stroke="#1F1F22" stroke-miterlimit="10"/>
<path d="M32.9829 27.5024C37.4415 37.8976 41.858 48.3087 46.3325 58.7458L32.9829 27.5024Z" fill="#1F1F22"/>
<path d="M32.9829 27.5024C37.4415 37.8976 41.858 48.3087 46.3325 58.7458" stroke="#1F1F22" stroke-miterlimit="10"/>
<path d="M42.8625 23.7671C47.3211 34.1623 51.7377 44.5733 56.2121 55.0105L42.8625 23.7671Z" fill="#1F1F22"/>
<path d="M42.8625 23.7671C47.3211 34.1623 51.7377 44.5733 56.2121 55.0105" stroke="#1F1F22" stroke-miterlimit="10"/>
<path d="M52.8263 20C57.2849 30.3952 61.7014 40.8063 66.1759 51.2434L52.8263 20Z" fill="#1F1F22"/>
<path d="M52.8263 20C57.2849 30.3952 61.7014 40.8063 66.1759 51.2434" stroke="#1F1F22" stroke-miterlimit="10"/>
<path d="M61.8231 16.5986C66.2817 26.9938 70.6983 37.4049 75.1727 47.842L61.8231 16.5986Z" fill="#1F1F22"/>
<path d="M61.8231 16.5986C66.2817 26.9938 70.6983 37.4049 75.1727 47.842" stroke="#1F1F22" stroke-miterlimit="10"/>
<path d="M11.5215 44.1974C30.9701 36.4132 50.4186 28.6289 69.8933 20.7869L11.5215 44.1974Z" fill="#1F1F22"/>
<path d="M11.5215 44.1974C30.9701 36.4132 50.4186 28.6289 69.8933 20.7869" stroke="#1F1F22" stroke-miterlimit="10"/>
<path d="M15.2771 50.0641C34.7257 42.2799 54.1742 34.4956 73.6489 26.6536L15.2771 50.0641Z" fill="#1F1F22"/>
<path d="M15.2771 50.0641C34.7257 42.2799 54.1742 34.4956 73.6489 26.6536" stroke="#1F1F22" stroke-miterlimit="10"/>
<path d="M18.0999 57.5304C37.5484 49.7462 56.9969 41.962 76.4717 34.1199L18.0999 57.5304Z" fill="#1F1F22"/>
<path d="M18.0999 57.5304C37.5484 49.7462 56.9969 41.962 76.4717 34.1199" stroke="#1F1F22" stroke-miterlimit="10"/>
<path d="M21.5661 63.2672C41.0146 55.483 60.4631 47.6988 79.9378 39.8567L21.5661 63.2672Z" fill="#1F1F22"/>
<path d="M21.5661 63.2672C41.0146 55.483 60.4631 47.6988 79.9378 39.8567" stroke="#1F1F22" stroke-miterlimit="10"/>
<path d="M38.8214 33.5408C40.1107 31.2317 43.8173 30.7412 45.5089 32.5466C46.7104 33.8181 46.699 36.0756 45.6185 37.5388C44.3912 39.2492 41.8211 40.0771 39.9517 38.8183C38.1982 37.6116 37.8884 35.14 38.8214 33.5408Z" fill="#1F1F22" stroke="#1F1F22" stroke-miterlimit="10"/>
<path d="M23.0991 48.2576C24.3884 45.9484 28.095 45.458 29.7867 47.2634C30.9881 48.5349 30.9767 50.7924 29.8962 52.2556C28.6689 53.966 26.0988 54.7939 24.2295 53.5351C22.4759 52.3284 22.182 49.8987 23.0991 48.2576Z" fill="#1F1F22" stroke="#1F1F22" stroke-miterlimit="10"/>
<path d="M63.4776 40.0393C64.7668 37.7302 68.4735 37.2397 70.1651 39.0451C71.3666 40.3167 71.3551 42.5742 70.2746 44.0373C69.0473 45.7478 66.4772 46.5756 64.6079 45.3168C62.8543 44.1101 62.5604 41.6804 63.4776 40.0393Z" fill="#1F1F22" stroke="#1F1F22" stroke-miterlimit="10"/>
</g>
<defs>
<clipPath id="clip0_3391_988">
<rect width="72.2274" height="51.0302" fill="white" transform="translate(0 25.542) rotate(-20.7098)"/>
</clipPath>
</defs>
</svg>
