<svg width="54" height="45" viewBox="0 0 54 45" fill="none" xmlns="http://www.w3.org/2000/svg">
<g clip-path="url(#clip0_2432_17933)">
<path d="M12.6 34.479H14.4V32.979H12.6V34.479ZM12.6 43.473H10.8C10.8 43.7516 10.8931 44.0246 11.0688 44.2616C11.2446 44.4986 11.496 44.6901 11.795 44.8146C12.094 44.9392 12.4287 44.992 12.7617 44.9669C13.0946 44.9419 13.4126 44.8401 13.68 44.673L12.6 43.473ZM27 34.479V32.979H26.3988L25.92 33.279L27 34.479ZM16.2 11.991H14.4V14.991H16.2V11.991ZM37.8 14.991H39.6V11.991H37.8V14.991ZM16.2 20.985H14.4V23.985H16.2V20.985ZM30.6 23.985H32.4V20.985H30.6V23.985ZM10.8 34.479V43.473H14.4V34.479H10.8ZM13.68 44.673L28.08 35.679L25.92 33.279L11.52 42.273L13.68 44.673ZM27 35.979H48.6V32.979H27V35.979ZM48.6 35.979C51.5844 35.979 54 33.969 54 31.479H50.4C50.4 32.31 49.5972 32.979 48.6 32.979V35.979ZM54 31.479V4.5H50.4V31.482H54V31.479ZM54 4.5C54 2.01 51.5844 0 48.6 0V3C49.5972 3 50.4 3.669 50.4 4.5H54ZM48.6 0H5.4V3H48.6V0ZM5.4 0C2.4156 0 0 2.01 0 4.5H3.6C3.6 3.669 4.4028 3 5.4 3V0ZM0 4.5V31.479H3.6V4.5H0ZM0 31.479C0 33.969 2.4156 35.979 5.4 35.979V32.979C5.16349 32.9794 4.92921 32.9409 4.71061 32.8656C4.49201 32.7904 4.29339 32.6799 4.12615 32.5405C3.95891 32.4012 3.82634 32.2357 3.73605 32.0535C3.64576 31.8713 3.59953 31.6761 3.6 31.479H0ZM5.4 35.979H12.6V32.979H5.4V35.979ZM16.2 14.991H37.8V11.991H16.2V14.991ZM16.2 23.985H30.6V20.985H16.2V23.985Z" fill="#1F1F22"/>
</g>
<defs>
<clipPath id="clip0_2432_17933">
<rect width="54" height="45" fill="white"/>
</clipPath>
</defs>
</svg>
