<svg width="54" height="34" viewBox="0 0 54 34" fill="none" xmlns="http://www.w3.org/2000/svg">
<path d="M47.25 0.125H6.75C5.85489 0.125 4.99645 0.480579 4.36351 1.11351C3.73058 1.74645 3.375 2.60489 3.375 3.5V30.5C3.375 31.3951 3.73058 32.2535 4.36351 32.8865C4.99645 33.5194 5.85489 33.875 6.75 33.875H47.25C48.1451 33.875 49.0035 33.5194 49.6365 32.8865C50.2694 32.2535 50.625 31.3951 50.625 30.5V3.5C50.625 2.60489 50.2694 1.74645 49.6365 1.11351C49.0035 0.480579 48.1451 0.125 47.25 0.125ZM43.5375 3.5L27 14.9412L10.4625 3.5H43.5375ZM6.75 30.5V5.03562L26.0381 18.3837C26.3206 18.5797 26.6562 18.6847 27 18.6847C27.3438 18.6847 27.6794 18.5797 27.9619 18.3837L47.25 5.03562V30.5H6.75Z" fill="#1F1F22"/>
</svg>
