<svg width="96" height="72" viewBox="0 0 96 72" fill="none" xmlns="http://www.w3.org/2000/svg">
<path d="M10.9287 6.96935C34.0177 -1.51632 45.7013 1.4509 52.1692 6.26597C58.2754 10.8407 59.3439 16.8077 66.6092 20.1718C75.8975 24.4911 87.034 20.6714 95.2958 16.534C92.2633 31.8275 89.1861 47.1098 86.1535 62.4033C75.2695 68.6861 61.8095 74.2758 53.1673 68.8678C46.8877 64.8998 47.5768 57.9715 41.6933 52.9524C36.0377 48.1401 24.9883 45.6313 1.32928 55.2747C2.52793 49.0737 3.75787 42.9305 5.00116 36.7407C6.97257 26.8324 8.95731 16.8776 10.9287 6.96935Z" fill="white" stroke="#1F1F22" stroke-miterlimit="10"/>
<path d="M37.5515 49.8756C39.486 41.875 41.3036 33.3081 42.8925 24.2444C44.1139 17.137 45.1163 10.3158 45.8997 3.78076C47.6988 4.43029 50.1826 5.59426 52.6933 7.64322C55.5097 9.91577 57.2509 12.4046 58.3287 14.1405C56.5202 19.7336 54.7593 25.485 53.1063 31.5076C50.4209 41.0262 48.1652 50.1655 46.2963 58.9146C45.7568 57.5586 44.7131 55.5386 42.8736 53.5616C40.905 51.552 38.8644 50.4511 37.5515 49.8756Z" fill="#1F1F22" stroke="#1F1F22" stroke-miterlimit="10"/>
<path d="M89.3353 48.9029C82.0485 50.0403 71.4738 50.6505 60.2073 46.6493C49.9526 43.0088 46.6416 38.2467 36.902 34.8404C30.0627 32.4814 19.6973 30.6177 4.99414 34.0456C5.57769 31.0996 6.17472 28.1055 6.71309 25.1481C7.11248 23.032 7.54354 20.9755 7.94293 18.8595C25.1526 15.8114 36.1429 19.0718 43.0016 22.5704C51.4554 26.939 54.2837 32.0424 63.5809 35.6456C74.2697 39.8092 84.7353 38.5523 91.6648 36.9631C91.2742 38.8751 90.9288 40.7986 90.5516 42.6625C90.1658 44.7304 89.7347 46.7868 89.3353 48.9029Z" fill="#1F1F22" stroke="#1F1F22" stroke-width="1.2854" stroke-miterlimit="10"/>
<path d="M61.9147 17.965C60.9358 19.7172 59.8949 21.8532 58.9657 24.2666C58.2144 26.2253 57.6947 28.0421 57.3175 29.6949C59.2072 29.268 61.1814 28.7126 63.2715 28.0862C68.0933 26.5942 72.3441 24.7601 75.9887 22.8746C74.2056 22.9287 71.3703 22.8201 68.1639 21.6707C65.2118 20.6345 63.1729 19.0776 61.9147 17.965Z" fill="#1F1F22" stroke="#1F1F22" stroke-width="1.2854" stroke-miterlimit="10"/>
<path d="M49.6378 62.7531C50.1884 60.6641 50.8361 58.4015 51.5987 56.0686C52.3745 53.6895 53.1992 51.471 54.0152 49.4482C54.4718 50.502 55.1633 52.0596 56.2001 53.9012C57.0818 55.4567 57.8613 56.5416 58.0164 56.8276C60.8252 61.5845 62.9526 66.0727 64.4959 70.1183C63.6249 70.3464 58.4565 71.6799 53.9557 68.5294C51.2913 66.5789 50.0989 63.9565 49.6378 62.7531Z" fill="#1F1F22" stroke="#1F1F22" stroke-width="1.3859" stroke-miterlimit="10"/>
<path d="M93.8094 26.1489C89.4924 27.523 84.9299 29.0859 80.1713 31.0003C77.3546 32.1485 74.6271 33.319 72.0471 34.4762C74.678 34.9832 77.8984 35.4372 81.6496 35.3732C85.7716 35.3517 89.3883 34.7537 92.2055 34.1061C92.4499 32.9159 92.7077 31.6791 92.9074 30.4778C93.2185 29.0542 93.5296 27.6305 93.8094 26.1489Z" fill="#1F1F22" stroke="#1F1F22" stroke-width="1.2854" stroke-miterlimit="10"/>
<path d="M9.15789 10.2792C12.1258 9.34286 20.2254 8.52808 25.7428 11.0467C29.1596 12.6257 31.4913 14.7991 32.9123 16.4358C29.5774 15.593 25.5443 14.8293 20.9125 14.4763C16.1185 14.1846 11.8161 14.3749 8.26644 14.8065C8.36946 14.2704 8.45901 13.782 8.56203 13.2459C8.74114 12.2691 8.97878 11.256 9.15789 10.2792Z" fill="#1F1F22" stroke="#1F1F22" stroke-width="1.2854" stroke-miterlimit="10"/>
<path d="M87.2311 62.1172C83.672 61.5766 78.9652 60.4927 73.8295 58.0292C69.8865 56.1205 66.753 53.9071 64.4476 52.004C67.5479 52.6324 71.1204 53.1255 75.0704 53.3068C80.1992 53.5816 84.8506 53.3293 88.7954 52.8481C88.72 53.7954 88.6445 54.7427 88.5422 55.785C88.2119 58.143 87.7554 60.2658 87.2311 62.1172Z" fill="#1F1F22" stroke="#1F1F22" stroke-width="1.2854" stroke-miterlimit="10"/>
<path d="M32.6144 2.09076C33.9489 1.88122 35.5919 1.74863 37.4466 1.86615C39.7683 2.00154 41.7203 2.43924 43.1789 2.95114C42.0259 8.13796 40.8861 13.2787 39.7331 18.4656C38.8669 15.8821 37.8376 13.2086 36.6012 10.4341C35.2852 7.44253 33.9607 4.64606 32.6144 2.09076Z" fill="#1F1F22" stroke="#1F1F22" stroke-miterlimit="10"/>
<path d="M35.5202 36.7486C35.113 40.654 34.6927 44.6055 34.3298 48.5218C32.5783 48.1841 30.5219 47.9187 28.1649 47.8752C25.5736 47.8228 23.3143 48.1004 21.422 48.4202C23.1485 46.031 25.8292 42.7914 29.8546 39.986C31.874 38.5603 33.8318 37.5149 35.5202 36.7486Z" fill="#1F1F22" stroke="#1F1F22" stroke-width="1.2854" stroke-miterlimit="10"/>
<path d="M9.46702 34.7794C11.5841 34.8604 12.5877 35.5078 15.3222 36.0901C16.4896 36.3315 18.2031 36.6594 20.3645 36.7515C16.98 38.4394 13.3562 40.4648 9.58193 42.8498C6.9608 44.5295 4.53049 46.2071 2.33542 47.8936C3.13442 43.7741 3.99107 39.6194 4.79007 35.4998C5.89476 35.1299 7.49643 34.6853 9.46702 34.7794Z" fill="#1F1F22" stroke="#1F1F22" stroke-miterlimit="10"/>
</svg>
