<svg width="68" height="42" viewBox="0 0 68 42" fill="none" xmlns="http://www.w3.org/2000/svg">
<path d="M1.70589 24.1631C2.83451 11.5818 1.39239 11.7076 2.6464 9.25429C4.59013 5.54281 9.04188 3.4669 36.1286 1.70553C59.7668 0.132866 63.7797 1.26518 66.0369 4.3476C67.0401 5.66863 67.0401 11.456 66.9774 22.9679C66.9147 31.9006 66.6639 34.7943 64.5321 37.1218C61.7733 40.0784 57.635 40.33 54.1238 40.4558C47.0386 40.7075 36.254 40.6446 22.1464 38.8832C20.8923 38.9461 10.9229 37.9396 8.79108 37.8138C5.15444 37.6251 3.39881 37.5622 2.4583 36.8702C0.201071 35.1717 1.07888 31.2715 1.70589 24.1631Z" stroke="#1F1F22" stroke-width="2" stroke-miterlimit="10" stroke-linecap="round"/>
<path d="M25.0435 12.2202C25.1248 14.2331 25.4452 16.6428 26.545 18.3622C27.1993 19.3849 27.5083 20.3684 27.5483 21.5795C27.6068 23.3527 27.5443 25.0064 26.8728 26.6463C30.0872 25.9851 33.2409 25.2053 36.4844 24.6604C38.1732 24.3767 39.8574 23.9173 41.4789 23.3696C43.1526 22.8043 44.6163 22.0527 46.3864 21.7242C46.5994 21.6846 46.8251 21.6565 47.056 21.6318C47.4841 21.5861 47.8165 20.1793 47.3882 20.1353L47.3491 20.1313C46.9393 20.0892 46.5924 20.0536 46.1831 19.9367C45.0588 19.6156 43.9608 19.0924 42.851 18.7097C41.7967 18.3462 40.6889 18.1612 39.6496 17.7523C37.7886 17.02 36.1098 15.9317 34.3284 15.043C32.5109 14.1363 30.9434 13.7418 28.9418 13.4259C27.7163 13.2325 25.8996 13.2468 25.0435 12.2202Z" fill="#1F1F22" stroke="#1F1F22" stroke-linecap="round"/>
</svg>
