<svg width="100" height="58" viewBox="0 0 100 58" fill="none" xmlns="http://www.w3.org/2000/svg">
<path d="M85.156 56.54C87.4249 55.101 86.0935 54.4633 93.2241 44.3773C97.221 38.6999 99.8346 35.7582 98.7651 33.3081C98.3208 32.2661 96.8293 31.3396 93.8746 29.4373C92.1173 28.2919 90.5691 27.4635 89.4622 26.8898C95.2278 20.0737 96.0597 18.0669 95.6544 17.6365C95.2982 17.2345 93.9033 18.0654 91.1441 19.2214C87.864 20.6002 85.0221 21.4465 83.0879 21.9661C71.9756 13.5869 62.934 8.30123 56.7903 5.01599C53.743 3.38752 50.1204 1.62327 46.3217 2.76809C43.3741 3.68431 41.761 6.02549 37.3474 13.5568C31.6869 23.2479 28.8811 28.1076 29.0344 29.7669C29.4443 33.4725 32.2887 36.3583 53.1059 46.6099C76.929 58.3352 81.6753 58.7193 85.156 56.54Z" fill="#1F1F22" stroke="#1F1F22" stroke-width="0.83" stroke-miterlimit="10" stroke-linecap="round"/>
<path d="M14.2912 1.74809C12.2054 3.09642 13.3897 3.64927 6.83899 12.9574C3.14619 18.2213 0.702665 20.8685 1.70242 23.2129C2.12607 24.1774 3.47048 25.0191 6.22901 26.8081C7.83924 27.8686 9.28936 28.6404 10.2982 29.1574C4.97077 35.4411 4.22397 37.3007 4.58019 37.7027C4.9364 38.1047 6.17657 37.3154 8.70365 36.2218C11.7516 34.9053 14.3614 34.1213 16.1899 33.6717C26.4274 41.4149 34.8317 46.3325 40.4851 49.3347C43.2872 50.8217 46.6364 52.4935 50.1256 51.4318C52.8411 50.5779 54.3409 48.4331 58.4144 41.4909C63.6498 32.5361 66.2572 28.02 66.0679 26.5362C65.6916 23.1119 63.0641 20.4167 43.8724 10.9727C21.8993 0.119159 17.4832 -0.27063 14.2912 1.74809Z" stroke="#1F1F22" stroke-miterlimit="10" stroke-linecap="round"/>
</svg>
