<svg width="49" height="42" viewBox="0 0 49 42" fill="none" xmlns="http://www.w3.org/2000/svg">
<path d="M34.476 42C17.6713 42 4 28.3287 4 11.524C4.00303 8.70323 5.03283 5.98002 6.89702 3.86305C8.76122 1.74609 11.3323 0.380147 14.13 0.020382C14.7738 -0.0549798 15.4247 0.0798552 15.9856 0.404764C16.5464 0.729672 16.9872 1.22723 17.242 1.82319L21.5559 11.8889C21.7516 12.3443 21.8324 12.8408 21.7912 13.3348C21.7501 13.8288 21.5882 14.3051 21.3198 14.7218L17.7357 20.1732C17.7002 20.2347 17.6798 20.3036 17.6761 20.3745C17.6724 20.4454 17.6854 20.5161 17.7142 20.581C19.3628 23.961 22.0988 26.6895 25.4834 28.3287C25.5491 28.3582 25.6215 28.3698 25.6931 28.3622C25.7647 28.3547 25.8331 28.3283 25.8912 28.2858L31.2782 24.7016C31.6908 24.4244 32.1666 24.2555 32.6617 24.2105C33.1568 24.1655 33.6553 24.2458 34.1111 24.4441L44.1768 28.758C44.7728 29.0128 45.2703 29.4536 45.5952 30.0144C45.9201 30.5753 46.055 31.2262 45.9796 31.8699C45.6199 34.6677 44.2539 37.2388 42.1369 39.103C40.02 40.9672 37.2968 41.997 34.476 42ZM14.4949 2.57436H14.452C12.2782 2.86009 10.282 3.92461 8.83349 5.57042C7.38502 7.21623 6.58271 9.33158 6.57544 11.524C6.58112 18.9219 9.52246 26.0153 14.7536 31.2464C19.9847 36.4775 27.0781 39.4189 34.476 39.4246C36.6684 39.4173 38.7838 38.615 40.4296 37.1665C42.0754 35.718 43.1399 33.7217 43.4256 31.548C43.433 31.4585 43.4121 31.369 43.3659 31.292C43.3197 31.215 43.2505 31.1544 43.1681 31.1188L33.1024 26.8049C33.0359 26.7793 32.9643 26.7699 32.8934 26.7773C32.8225 26.7848 32.7544 26.809 32.6947 26.8478L27.3292 30.432C26.8948 30.7174 26.3946 30.8869 25.8762 30.9244C25.3578 30.962 24.8384 30.8664 24.3674 30.6466C20.4635 28.7461 17.3062 25.5963 15.3963 21.697C15.1733 21.2316 15.0739 20.7165 15.1077 20.2015C15.1415 19.6865 15.3075 19.1889 15.5895 18.7567L19.1522 13.3053C19.1947 13.2472 19.2211 13.1789 19.2286 13.1072C19.2361 13.0356 19.2246 12.9633 19.1951 12.8976L14.8812 2.8319C14.8483 2.75645 14.7944 2.69205 14.7259 2.64639C14.6574 2.60073 14.5772 2.57572 14.4949 2.57436Z" fill="#1F1F22"/>
</svg>
