<svg width="91" height="64" viewBox="0 0 91 64" fill="none" xmlns="http://www.w3.org/2000/svg">
<path d="M24.6006 40.0954C11.9436 43.1889 -0.0741509 52.1258 1.07648 56.4223C1.92881 59.6018 9.3014 58.055 31.7601 60.3752C51.4061 62.3945 55.5399 64.5858 62.8273 61.3634C73.0551 56.809 80.6834 45.6379 78.4674 41.2555C76.8906 38.1619 71.3079 40.3532 54.3466 40.3961C35.7234 40.4391 33.6778 37.8612 24.6006 40.0954Z" fill="#F3F3F5" stroke="#1F1F22" stroke-width="0.9816" stroke-miterlimit="10"/>
<path d="M25.7939 37.6896C13.137 40.7832 1.11921 49.763 2.26984 54.0596C3.12217 57.239 10.4948 55.6922 32.9535 58.0124C52.5995 60.0318 56.7333 62.223 64.0206 59.0006C74.2485 54.4462 81.8768 43.2752 79.6607 38.8927C78.0839 35.7992 72.5012 37.9904 55.54 38.0334C36.9168 38.0334 34.9138 35.4554 25.7939 37.6896Z" fill="#F3F3F5" stroke="#1F1F22" stroke-width="0.9816" stroke-miterlimit="10"/>
<path d="M33.5073 6.53935C37.7262 1.89906 43.0959 2.54355 62.4436 1.81313C82.8141 1.03975 87.4592 -0.0343919 89.4196 3.18803C91.5078 6.58231 87.5445 9.76177 84.1352 24.8427C81.9192 34.6818 82.9846 36.0138 80.8111 38.4198C76.3364 43.4898 69.39 40.3963 50.1275 40.1814C32.6549 40.0096 25.879 42.4156 23.5351 38.4198C22.5549 36.7872 23.1089 35.3693 28.4359 19.6868C32.3566 8.17204 32.4845 7.65646 33.5073 6.53935Z" fill="#1F1F22" stroke="#1F1F22" stroke-miterlimit="10"/>
<path d="M37.2149 6.53961C41.4339 2.71567 45.9085 4.82098 60.0997 4.77802C76.7626 4.73505 82.7289 1.77042 85.1154 5.37954C86.266 7.09816 85.3711 8.47306 81.5782 22.308C78.7656 32.7057 78.7656 33.6939 77.274 35.1118C73.055 39.1076 67.6854 36.4437 53.8778 35.9711C36.8313 35.3695 29.3309 38.8927 27.1148 34.9829C26.2199 33.3931 27.1148 32.2331 31.5469 20.1597C35.6807 8.85975 35.5954 8.0434 37.2149 6.53961Z" fill="white" stroke="#1F1F22" stroke-miterlimit="10"/>
<path d="M22.9385 43.9625C18.4638 45.0367 18.0376 45.5952 18.0376 45.9389C18.0802 47.3998 26.9017 47.2279 41.6895 49.5051C55.2841 51.6104 61.5913 53.8446 65.9381 49.8918C66.1512 49.7199 68.9639 47.099 68.282 44.9507C67.5575 42.8024 63.6795 42.7165 48.7212 42.2009C40.1127 41.9002 32.5271 41.6424 22.9385 43.9625Z" fill="#1F1F22" stroke="#1F1F22" stroke-miterlimit="10"/>
<path d="M27.4558 50.2783C26.6035 50.6221 25.0267 51.4384 25.112 52.2547C25.1972 53.1141 27.2002 53.3289 32.5272 54.403C38.7065 55.649 40.539 56.2935 41.5192 55.1764C42.201 54.403 42.2436 53.0281 41.7323 52.2118C41.0078 51.0517 39.431 51.4384 35.8512 51.0087C31.2061 50.4932 29.885 49.3331 27.4558 50.2783Z" fill="#1F1F22" stroke="#1F1F22" stroke-miterlimit="10"/>
<path d="M71.947 44.1773C71.947 44.8647 74.1204 45.8959 74.8875 45.1655C75.3137 44.7788 75.3137 43.8335 74.8875 43.4039C74.1204 42.5875 71.947 43.5328 71.947 44.1773Z" fill="#1F1F22" stroke="#1F1F22" stroke-miterlimit="10"/>
</svg>
