<svg width="98" height="56" viewBox="0 0 98 56" fill="none" xmlns="http://www.w3.org/2000/svg">
<path d="M3 52.7271C7.11545 40.2771 11.1408 27.8066 15.4806 15.4316C19.7431 15.4316 21.1279 31.5381 22.5009 34.252C24.4741 38.1523 26.2251 42.3123 27.1811 46.5975C27.588 48.4214 27.7621 51.851 29.5212 52.7271M10.0203 41.8493C14.613 41.8493 16.8974 41.8198 20.9408 39.5183" stroke="#1F1F22" stroke-width="6" stroke-linecap="round"/>
<path d="M33.665 15.463C33.8561 20.1547 34.1885 23.8469 36.5506 27.9671C37.9706 30.444 40.0195 33.2096 40.4547 36.0948C41.0546 40.0723 40.5395 44.4646 40.5395 48.4739M34.9998 14.7351C35.2433 14.6873 35.3756 14.5895 35.5655 14.4217C37.1494 13.0216 39.7227 12.5125 41.6861 11.9857C45.5363 10.9526 47.7968 10.6852 50.4174 13.9089C51.4584 15.1896 53.1022 17.0683 52.2158 18.8095C51.3523 20.5057 50.2558 22.1931 49.0975 23.71M46.9256 25.7916C51.6299 25.2783 66.3344 25.0641 62.8181 32.9983C61.197 36.6562 58.9659 40.8009 55.6097 43.1983C52.935 45.109 46.5802 46.4661 44.0249 48.4739" stroke="#1F1F22" stroke-width="6" stroke-linecap="round"/>
<path d="M81.783 7.48496C81.783 4.21024 76.3759 1.4397 74.025 4.00838C70.6668 7.67775 71.9175 13.0066 72.5466 17.3991C73.0078 20.6189 73.285 24.813 74.874 27.7257C76.4409 30.5979 79.7678 34.1398 83.2175 34.4727C87.9053 34.925 91.0298 28.0415 94.1666 25.516" stroke="#1F1F22" stroke-width="6" stroke-linecap="round"/>
</svg>
